<svg xmlns="http://www.w3.org/2000/svg" width="500" height="500" viewBox="0 0 500 500">
  <path id="Smart_search_logo_white" data-name="Smart search logo_white" d="M250,500C112.15,500,0,387.851,0,250S112.15,0,250,0,500,112.15,500,250,387.851,500,250,500Zm109.686-99.861a285.938,285.938,0,0,1-57.067,68.307,225.08,225.08,0,0,0,97.449-51.378A256.118,256.118,0,0,0,359.686,400.139Zm-219.376,0a256.308,256.308,0,0,0-40.379,16.932,225.065,225.065,0,0,0,97.447,51.377A285.873,285.873,0,0,1,140.31,400.135Zm152.2-14.185a141.977,141.977,0,0,1-29.86,5.9l0,75.777a260.813,260.813,0,0,0,71.6-74.565A356.287,356.287,0,0,0,292.514,385.95Zm-85.031,0h0a356.467,356.467,0,0,0-41.743,7.111,260.789,260.789,0,0,0,71.6,74.566V391.851a142.073,142.073,0,0,1-29.857-5.9ZM400.467,262.663A291.858,291.858,0,0,1,371.785,377.7a268.455,268.455,0,0,1,46.8,20.663,224.694,224.694,0,0,0,55.735-135.7Zm-374.787,0a224.69,224.69,0,0,0,55.736,135.7,268.605,268.605,0,0,1,46.8-20.663A291.87,291.87,0,0,1,99.531,262.661ZM359.874,340.6a143.233,143.233,0,0,1-28.485,26.271c5.284,1.085,10.566,2.291,15.7,3.584A262.834,262.834,0,0,0,359.874,340.6Zm-219.75,0h0a263.473,263.473,0,0,0,12.787,29.853c5.146-1.292,10.428-2.5,15.7-3.578A143.188,143.188,0,0,1,140.124,340.6Zm129.554-63.491v0h0L283.073,290.5l.006.005,35.043,35.044a14.514,14.514,0,1,0,20.526-20.525l-48.44-48.443a71.69,71.69,0,0,0,12.047-40,72.578,72.578,0,1,0-72.578,72.578h.15A71.707,71.707,0,0,0,269.679,277.109Zm148.9-175.465a268.8,268.8,0,0,1-46.8,20.662,291.854,291.854,0,0,1,28.681,115.038H474.32A224.678,224.678,0,0,0,418.584,101.644Zm-337.171,0h0a224.7,224.7,0,0,0-55.733,135.7H99.531a291.855,291.855,0,0,1,28.682-115.038,268.9,268.9,0,0,1-46.8-20.662Zm71.5,27.9h0a263.588,263.588,0,0,0-12.787,29.858,143.168,143.168,0,0,1,28.488-26.276c-5.279-1.083-10.561-2.289-15.7-3.583Zm194.177.005h0c-5.15,1.3-10.432,2.5-15.7,3.583A143.252,143.252,0,0,1,359.87,159.4a263.225,263.225,0,0,0-12.782-29.844ZM262.659,32.379V108.15a141.978,141.978,0,0,1,29.86,5.9h0v.005a356.681,356.681,0,0,0,41.74-7.111,260.759,260.759,0,0,0-71.6-74.566Zm-25.318-.006h0a260.832,260.832,0,0,0-71.6,74.567,355.815,355.815,0,0,0,41.746,7.115,142.075,142.075,0,0,1,29.858-5.9V32.374Zm65.281-.819h0a285.946,285.946,0,0,1,57.066,68.31A255.748,255.748,0,0,0,400.07,82.935a225.046,225.046,0,0,0-97.448-51.38Zm-105.245,0A225.065,225.065,0,0,0,99.931,82.934a256.034,256.034,0,0,0,40.38,16.931A285.925,285.925,0,0,1,197.377,31.556ZM328.385,322.538a7.207,7.207,0,0,1-5.132-2.127L291.03,288.188a95.523,95.523,0,0,0,10.261-10.261l32.224,32.225a7.257,7.257,0,0,1-5.131,12.387Zm-42.5-39.491h0l-10.3-10.3a73.055,73.055,0,0,0,10.262-10.261l10.3,10.3a88.354,88.354,0,0,1-10.26,10.26ZM229.653,281.9h0a65.623,65.623,0,0,1-27.022-5.819,65.538,65.538,0,1,1,27.023,5.819Zm.026-123.384a58.063,58.063,0,1,0,58.063,58.063A58.128,58.128,0,0,0,229.679,158.512Zm0,108.867a50.7,50.7,0,1,1,19.763-4.008A50.48,50.48,0,0,1,229.679,267.379ZM269.6,212.945a3.629,3.629,0,1,0,3.629,3.629A3.633,3.633,0,0,0,269.6,212.945Zm-39.918-39.918a3.629,3.629,0,0,0,0,7.258A36.538,36.538,0,0,1,263.571,203.6a3.629,3.629,0,1,0,6.776-2.6A43.875,43.875,0,0,0,229.678,173.028Z" fill="#fff"/>
</svg>
