<svg id="Group_162338" data-name="Group 162338" xmlns="http://www.w3.org/2000/svg" width="19.87" height="19.87" viewBox="0 0 19.87 19.87">
  <circle id="Ellipse_9403" data-name="Ellipse 9403" cx="9.935" cy="9.935" r="9.935" fill="#fff"/>
  <g id="Group_162337" data-name="Group 162337" transform="translate(4.258 2.839)">
    <path id="Union_8" data-name="Union 8" d="M8.575,14.193H.241A.242.242,0,0,1,0,13.951v-.033A2.134,2.134,0,0,1,1.463,11.89l2.646-.883V9.685a3.679,3.679,0,0,1-1.921-2.3A6.617,6.617,0,0,1,1.07,4.1C1.07,1.652,2.916,0,5.663,0A5.25,5.25,0,0,1,8.951,1.048a3.782,3.782,0,0,1,1.4,3.052A6.065,6.065,0,0,1,9.234,7.39,3.678,3.678,0,0,1,7.318,9.685V11.01c0,.027,0,.054,0,.079l2.421.808a2.134,2.134,0,0,1,1.463,2.028v.033a.24.24,0,0,1-.191.235H8.575Zm2.136-.477a1.651,1.651,0,0,0-1.12-1.361l-2.368-.788a1.738,1.738,0,0,1-1.508.631,2.4,2.4,0,0,1-1.047-.218,1.023,1.023,0,0,1-.495-.482l-2.559.851A1.652,1.652,0,0,0,.5,13.71H8.575a.242.242,0,0,1,.068.006ZM4.585,11.186c0,.345.571.531,1.126.531s1.126-.2,1.126-.531v-1.3a3.647,3.647,0,0,1-2.252,0ZM2.534,5.03V6.4a3.178,3.178,0,1,0,6.356,0V5.03A4.574,4.574,0,0,0,8.7,3.662a2.375,2.375,0,0,1-.922.172,5.142,5.142,0,0,1-1.769-.386l.411.83a.262.262,0,0,1,.019.049.234.234,0,0,1,.006.036v.011a.308.308,0,0,1,0,.049.149.149,0,0,0-.006.024c0,.007,0,.014-.005.021s-.006.017-.01.024a.05.05,0,0,0-.008.018L6.4,4.53a.187.187,0,0,1-.033.038l-.015.013a.215.215,0,0,1-.04.026.305.305,0,0,1-.048.017h-.02l-.022,0c-.138.01-.275.015-.413.015a5.925,5.925,0,0,1-3.1-.9A4.617,4.617,0,0,0,2.534,5.03ZM9.056,3.236A4.836,4.836,0,0,1,9.371,5.03V6.143a4.642,4.642,0,0,0,.5-2.043C9.871,1.6,7.757.483,5.663.483c-2.5,0-4.11,1.42-4.11,3.617a4.719,4.719,0,0,0,.5,1.988V5.03a4.884,4.884,0,0,1,.307-1.75.131.131,0,0,1,.008-.017c0-.009.009-.019.014-.027l.008-.009A.2.2,0,0,1,2.409,3.2l.013-.011.023-.019.017-.009.024-.013L2.5,3.144l.026-.008h.093l.027.008.016,0,.023.011.02.011A5.5,5.5,0,0,0,5.82,4.16l-.54-1.07a.029.029,0,0,1,0-.01l-.009-.024a.216.216,0,0,1-.006-.022V2.942a.144.144,0,0,1,.006-.022c0-.008,0-.016.007-.024V2.884l.006-.009a.112.112,0,0,1,.013-.022L5.3,2.834l.015-.017L5.336,2.8l.017-.013.022-.014.009-.006.01,0,.025-.01.02-.005.024,0h.069l.022.005.025.008h.011c1.476.654,2.436.766,3.112.363l.029-.013L8.741,3.1l.014,0a.24.24,0,0,1,.3.139Z" transform="translate(0)" fill="#05396b"/>
    <path id="Path_3054" data-name="Path 3054" d="M61.807,105.695a1.73,1.73,0,0,0,.916-.26.209.209,0,0,0-.221-.355,1.318,1.318,0,0,1-1.391,0,.209.209,0,0,0-.218.353A1.733,1.733,0,0,0,61.807,105.695Z" transform="translate(-56.029 -96.673)" fill="#05396b"/>
    <path id="Path_3055" data-name="Path 3055" d="M50.294,68.32a.209.209,0,0,0-.209.209v.591a.209.209,0,1,0,.418,0v-.591A.209.209,0,0,0,50.294,68.32Z" transform="translate(-45.996 -62.324)" fill="#05396b"/>
    <path id="Path_3056" data-name="Path 3056" d="M95.844,69.162a.209.209,0,0,0,.209-.209v-.591a.209.209,0,1,0-.418,0v.591A.209.209,0,0,0,95.844,69.162Z" transform="translate(-88.588 -62.157)" fill="#05396b"/>
  </g>
</svg>
