<svg xmlns="http://www.w3.org/2000/svg" xmlns:xlink="http://www.w3.org/1999/xlink" width="39.46" height="39.46" viewBox="0 0 39.46 39.46">
  <defs>
    <clipPath id="clip-path">
      <rect id="Rectangle_147722" data-name="Rectangle 147722" width="16.233" height="5.912" fill="none"/>
    </clipPath>
  </defs>
  <g id="Group_162085" data-name="Group 162085" transform="translate(4244 3783)">
    <circle id="Ellipse_9403" data-name="Ellipse 9403" cx="19.73" cy="19.73" r="19.73" transform="translate(-4244 -3783)" fill="#e6e6e6"/>
    <g id="Group_162083" data-name="Group 162083" transform="translate(-4235.544 -3777.363)">
      <g id="Group_162082" data-name="Group 162082" transform="translate(0)">
        <path id="Path_3172" data-name="Path 3172" d="M17.025,27.226H.959v.415a3.28,3.28,0,0,1,2.248-3.119l5.081-1.691a2.019,2.019,0,0,0,.983.957,4.752,4.752,0,0,0,2.078.434c1.284,0,2.649-.44,3.064-1.391l1.193.4a.479.479,0,1,0,.3-.909l-1.37-.456V19.233a7.305,7.305,0,0,0,3.8-4.556,12.047,12.047,0,0,0,2.226-6.533,7.514,7.514,0,0,0-2.788-6.062A10.424,10.424,0,0,0,11.246,0c-5.455,0-9.12,3.28-9.12,8.143,0,2.214.895,4.212,2.218,6.524A7.305,7.305,0,0,0,8.16,19.233V21.86L2.9,23.613A4.237,4.237,0,0,0,0,27.642v.065a.48.48,0,0,0,.48.479H17.029a.48.48,0,1,0,0-.959ZM11.246.959c4.16,0,8.358,2.221,8.358,7.185a9.215,9.215,0,0,1-.993,4.057V9.989a9.581,9.581,0,0,0-.628-3.562.476.476,0,0,0-.6-.277l-.028.007h0l-.018.01a.412.412,0,0,0-.058.027c-1.342.8-3.249.578-6.18-.72h-.021a.318.318,0,0,0-.049-.016l-.045-.01h-.137l-.048.009-.042.01-.049.019-.019.007-.018.012a.371.371,0,0,0-.045.028L10.6,5.56a.389.389,0,0,0-.036.034c-.01.012-.021.022-.03.034l-.025.037a.34.34,0,0,0-.025.045l-.01.018V5.75a.447.447,0,0,0-.015.048.367.367,0,0,0-.01.043V5.98a.428.428,0,0,0,0,.046.365.365,0,0,0,.012.043l.018.048a.088.088,0,0,0,.009.021l1.073,2.125A10.921,10.921,0,0,1,5.379,6.3h0a.349.349,0,0,0-.04-.022.447.447,0,0,0-.046-.022h0l-.031-.009a.361.361,0,0,0-.054-.015H5.024a.343.343,0,0,0-.052.015l-.036.012-.048.025L4.856,6.3l-.046.037a.182.182,0,0,0-.025.022.353.353,0,0,0-.043.051l-.015.018h0c-.01.016-.019.036-.028.054s-.012.022-.016.033h0a9.691,9.691,0,0,0-.608,3.475v2.1a9.358,9.358,0,0,1-.988-3.946C3.085,3.779,6.289.959,11.246.959ZM5.032,12.7V9.989a9.191,9.191,0,0,1,.335-2.558A11.769,11.769,0,0,0,11.534,9.22c.273,0,.546-.01.82-.03l.045-.007h.039a.519.519,0,0,0,.1-.034h0a.434.434,0,0,0,.081-.051l.028-.027A.35.35,0,0,0,12.707,9a.378.378,0,0,0,.027-.04.108.108,0,0,1,.016-.036.46.46,0,0,0,.021-.048.426.426,0,0,0,.01-.042c0-.016.009-.033.01-.049a.507.507,0,0,0,0-.1h0a.119.119,0,0,0,0-.022.383.383,0,0,0-.012-.07.543.543,0,0,0-.037-.1l-.816-1.649a10.2,10.2,0,0,0,3.514.766,4.713,4.713,0,0,0,1.831-.343,9.028,9.028,0,0,1,.38,2.718V12.7a6.311,6.311,0,1,1-12.621,0Zm6.31,7.276h0a7.213,7.213,0,0,0,2.236-.355v2.591c0,.66-1.135,1.056-2.236,1.056s-2.236-.37-2.236-1.056V19.623a7.256,7.256,0,0,0,2.236.355Z" transform="translate(0)" fill="#05396b"/>
        <g id="Mask_Group_8" data-name="Mask Group 8" transform="translate(7.42 22.262)" clip-path="url(#clip-path)">
          <path id="Path_3173" data-name="Path 3173" d="M.511,90.843H16.577v.415a3.28,3.28,0,0,0-2.248-3.119L9.248,86.449a2.019,2.019,0,0,1-.983.957,4.752,4.752,0,0,1-2.078.434c-1.284,0-2.649-.44-3.064-1.391l-1.193.4a.479.479,0,0,1-.3-.91L3,85.481c-1.856-3.543,8.236-3.543,6.374,0l5.255,1.753a4.237,4.237,0,0,1,2.9,4.028v.065a.48.48,0,0,1-.48.479H.507a.48.48,0,1,1,0-.959Zm3.447-5.012c0,.66,1.135,1.056,2.236,1.056s2.236-.37,2.236-1.056A2.3,2.3,0,0,0,3.958,85.832Z" transform="translate(-2.231 -85.879)" fill="#05396b"/>
        </g>
        <path id="Path_3054" data-name="Path 3054" d="M62.784,106.326a3.435,3.435,0,0,0,1.818-.516.415.415,0,0,0-.439-.7,2.618,2.618,0,0,1-2.763,0,.415.415,0,0,0-.433.7A3.442,3.442,0,0,0,62.784,106.326Z" transform="translate(-51.311 -89.819)" fill="#05396b"/>
        <path id="Path_3055" data-name="Path 3055" d="M50.5,68.32a.415.415,0,0,0-.415.415v1.174a.415.415,0,1,0,.829,0V68.735A.415.415,0,0,0,50.5,68.32Z" transform="translate(-41.964 -57.822)" fill="#05396b"/>
        <path id="Path_3056" data-name="Path 3056" d="M96.05,70.168a.415.415,0,0,0,.415-.415V68.579a.415.415,0,1,0-.829,0v1.174A.415.415,0,0,0,96.05,70.168Z" transform="translate(-81.64 -57.666)" fill="#05396b"/>
      </g>
    </g>
  </g>
</svg>
